<svg xmlns="http://www.w3.org/2000/svg" width="500" height="500" viewBox="0 0 500 500">
  <defs>
    <style>
      .cls-1 {
        fill: #fff;
        fill-rule: evenodd;
      }
    </style>
  </defs>
  <path id="speedy4dev_circle_logo_1" data-name="speedy4dev circle logo 1" class="cls-1" d="M952.333,421l12.1,2.688-2.688,2.688C957.162,424.76,955.02,424.555,952.333,421Zm-14.785,2.688c10.766,0.971,18.664,7.117,24.194,13.441C952.187,435.382,942.746,430.035,937.548,423.688Zm-8.064,1.344h6.72l1.344,2.688c1.332,6.966.363,11.134-1.344,17.474l-2.688,1.344c-1.912-3.189-2.216-3.544-2.688-9.409,4.885-.865,4.069-0.542,6.72-2.688Zm26.882,2.688,24.193,8.065v1.344c-9.416-.1-8.795,2.8-13.441-1.344Zm16.129,0c21.43,0.948,55.015,16.168,65.855,29.57Zm8.064,10.753c8.539,1.858,24.661,5.3,29.571,14.785-8.99-4.213-31.084-8.6-34.947-12.1v-1.344Zm8.065,9.409h6.72L994,450.57h-9.409Zm-64.516,1.344H926.8c-1.534,9.4-3.106,13.48-14.785,13.441l1.344-2.689c5.939-1.039,4.992-.811,8.064-4.032V454.6a177.54,177.54,0,0,0-56.451,10.753h-6.721l-1.344-1.344,26.882-10.753Zm64.516,5.376,33.606,1.344c4.79,17.562,43.19,45.381,60.48,51.076v-1.345c-3.89-5.288-6.81-7.377-5.38-14.785h1.35c3.77,2.1,3.14,1.978,5.37,5.377-0.98,5.454-3.46,2.628,1.35,5.376,2.21,4.421,2.73,4.291,6.72,6.721-1.97-6.109-4.62-6.295-5.38-9.409,1.35,0.448,2.69.9,4.03,1.344q11.43,12.768,22.85,25.538c-26.74-9.145-48.1-31.292-77.95-36.291-7.84,23.322-108.922,92.865-141.132,84.678,4.511,5.052,8.736,2.686,16.129,5.376,17.315,6.3,36.5,19.835,45.7,34.946l1.344-5.376c43.49,35.951,136.12,93.252,158.6,143.817l-12.09-10.752c-3.59-9.815-13.82-18.747-22.85-22.85l38.97,44.355q-30.24-30.91-60.48-61.828,8.07,6.048,16.13,12.1c-11.29-15.669-14.95-18.235-29.57-26.882q5.37,6.048,10.75,12.1c-16.67-8.191-19.18-29.387-36.29-37.635q2.025,4.7,4.03,9.409c-7.32-4.46-8.24-6.488-13.44-9.409-2.37-11.264-40.995-25.477-40.319-38.978l-6.721,4.032c-7.806-24.117-59.889-36.5-80.645-56.451l6.72,2.688-32.258-18.817c15.839,1.324,26.65,11.779,37.635,18.817,51.265-18.765,98.835-45.7,135.748-79.3-0.44-.9-0.89-1.793-1.34-2.689-4.04-1.726-3.02-.844-5.38-4.032q4.71,1.344,9.41,2.688V488.2c-6.41-7.18-18.66-8.157-24.19-16.129,6.6,3.269,10.61,5.911,20.16,6.721,0.9-1.344,1.79-2.689,2.69-4.033q-6.72-8.062-13.44-16.129C1008.24,458.782,995.587,459.224,988.624,454.6Zm-84.678,5.376h2.688c-12.926,16.275-53.71,27.44-80.645,28.226l1.344-2.688,36.291-17.473c-4.459,8.36-13.87,9.781-20.162,16.129C861.748,481.159,891.654,470.962,903.946,459.978Zm127.684,1.345q5.385,6.047,10.76,12.1Q1037,467.371,1031.63,461.323Zm13.45,0c11.76,3.745,32.44,14.9,37.63,25.537h-1.34q-15.465-10.08-30.92-20.161c-0.04.914,0.63,4.957-1.34,2.688Q1047.085,465.355,1045.08,461.323Zm12.09,12.1q8.745,7.392,17.48,14.785v1.344C1065.5,487.52,1060.43,481.074,1057.17,473.419Zm-169.353,1.344h8.065l-1.344,2.689C890.229,477.262,884.936,478.9,887.817,474.763Zm146.5,1.345c0.28,5.8.36,6.487,2.69,9.408h1.34V480.14C1036.51,477.59,1037.05,477.94,1034.32,476.108ZM870.344,478.8h0Zm-2.688,1.344h0Zm-4.032,1.344h4.032v1.344c-7.831,2.67-14.465,8.962-17.473,8.064l2.688-4.032Zm8.064,4.032c3.561,1.892,1.169.706,0,4.032v-4.032ZM1085.4,488.2c33.71,16.123,68.22,47.936,91.4,75.269-18.55-7.239-50.24-26.264-61.83-41.667q4.695,3.36,9.41,6.721C1116.85,508.893,1095.9,503.852,1085.4,488.2Zm-219.088,1.344h5.376l-1.344,2.689-14.785,5.376v-2.688Zm-57.8,8.065,30.914,1.344h-2.688c-9.177,6.535-24.423,10.336-38.979,10.753l1.345-2.688,12.1-2.689C807.038,498.414,807.645,504.02,808.516,497.613ZM1119,502.989c9.98,4,22.4,11.755,26.88,21.506C1136.43,519.959,1123.52,512.514,1119,502.989Zm-81.99,4.033c20.79,3.4,119.89,46.076,131.72,57.8q-8.055-2.688-16.13-5.376c4.35,6.162,10,9.322,14.79,14.785h-5.38c-22.69-20.623-53.04-35.361-83.33-48.387C1064.45,519.72,1047.23,517.109,1037.01,507.022Zm123.66,30.913c12.61,9.445,20.6,21.79,29.57,34.947C1181.65,568.552,1164.51,546.808,1160.67,537.935Zm-283.6,28.226h0Zm288.975,0c7.18,3.088,5.91,2.906,8.07,8.065h-4.03Q1168.055,570.194,1166.04,566.161ZM881.1,568.849h0Zm301.073,5.377c4.49,2.682,8.13,4.667,10.75,9.408C1187.46,581.005,1184.87,579.8,1182.17,574.226Zm40.32,30.914q4.71,2.688,9.41,5.376c-0.89.9-1.79,1.792-2.68,2.688q-2.7-2.016-5.38-4.032Zm-311.823,4.032,22.849,5.376L744,629.333V625.3l1.344-2.688C783.55,621.863,882.127,621.206,910.667,609.172Zm-111.559,12.1-1.345,2.688,12.1-1.344Zm389.782,32.258c9.47,5.409,15.26,14.279,20.16,24.193-0.44.9-.89,1.793-1.34,2.689q-2.685-2.016-5.38-4.033c-0.84-8.5-3.03-11.855-9.41-14.785l8.07,12.1c-7.17-2.478-10.03-5.987-13.44-12.1,2.56-3.39,2.6.029,1.34-4.032-1.34.9-2.69,1.792-4.03,2.688C1186.2,658.007,1187.55,655.767,1188.89,653.527ZM981.9,656.215c19.627,0.091,61.007,35.094,67.207,48.387l-21.51-17.473q6.045,8.064,12.1,16.129v2.688c-13.53,8.516-135.187,40.966-157.259,36.291L777.6,681.753l1.344-2.688Zm0,6.72c-40.3,15.089-161.469,3.533-188.172,24.194l32.258-1.344H823.3l-10.753,2.688v2.688c5.417,0.544,5.258.44,8.065,2.688-1.492,3.811-1.163,1.955-1.344,5.377l17.473-1.344-5.376,5.376c33.1-4.337,123.583-11.248,139.785-29.57v-1.344L950.989,671,994,665.624V664.28Zm6.721,5.377L983.247,671l1.344,2.688L994,675.032,992.656,671a25.28,25.28,0,0,1,16.124,13.441h-1.34c-10.107-3.14-19.329-5.664-26.881-10.753-3.82,5.907-10.855,5.268-16.129,9.409l21.5-2.688-1.344,2.688L828.677,707.29,801.8,692.505v1.344h2.688c16.251,16.681,36.409,19.741,60.484,29.57l-5.377,2.689,22.85,6.72v1.344c-5.094,2.564-2.763.576-4.032,4.032l4.032,1.344,65.86-12.1,83.329-21.506C1028.08,690.611,1006.78,669.252,988.624,668.312Zm38.976,0c3.95,3.195,4.2,2.885,5.38,9.408-0.9-.448-1.79-0.9-2.69-1.344C1029.39,673.688,1028.5,671,1027.6,668.312Zm-98.116,5.376h0Zm-76.613,6.721H869v1.344l-21.5,4.032-1.344-2.688Zm67.2,0h2.688l-4.032,6.72-13.441,2.688,1.344-2.688ZM878.409,683.1l6.72,1.344,2.688,5.376v1.344H874.376l-4.032-2.688C877.672,687.786,876.219,689.022,878.409,683.1Zm352.151,2.688L1244,701.914a91.985,91.985,0,0,0-8.06,28.226h-1.35c0.37-9.7,1.29-17.879-1.34-22.85q4.035-2.016,8.06-4.032c-0.89-.448-1.79-0.9-2.69-1.344-1.08-2.085-9.65-6.389-8.06-6.72v-9.409Zm-225.81,1.344,9.41,1.344v1.344c-45.673.939-149.96,43.163-177.418,21.506l29.57-2.689-14.785,4.033v1.344l55.107-8.065h-36.29C913.141,700.622,969.038,702.74,1004.75,687.129Zm9.41,4.032c6,1.758,6.41,2.169,9.41,6.721v1.344h-4.03c-1.99-6.607-.42-4.729-8.07-5.377-4.75,2.467-9.79,5.407-16.126,2.689h2.688Q1006.1,693.85,1014.16,691.161Zm213.71,6.721c8.97,15.089-25.86,51.423-32.26,68.548h-4.03v-1.344Q1209.73,731.488,1227.87,697.882Zm-184.14,10.752q4.71,2.016,9.41,4.033c-10.21,8.691-150.346,42.141-166.667,32.258,55.993,0.777,110.952-16.662,155.917-30.914C1042.84,712.219,1043.28,710.426,1043.73,708.634Zm-135.752,6.721h5.377l-1.344,2.688c-6.914,1.9-16.563,5.782-21.506,1.344Zm305.112,0c0.47,14.733-27.94,52.739-40.33,61.828q1.35-4.032,2.69-8.065c-22.76,14.6-38.66,37.486-63.17,51.076-39.83,22.083-91.55,29.863-126.345,56.451,16.625-41.867,70.5-47.183,111.555-64.516C1147.2,791.149,1188.25,760.918,1213.09,715.355Zm20.16,20.161c1.38,3.964-2.6,16.915-6.72,20.161Q1229.89,745.6,1233.25,735.516ZM874.376,751.645c18.434,6.231,125.007,75.84,131.724,88.71h-1.35Q939.572,796,874.376,751.645Zm245.964,12.1q2.7,3.36,5.38,6.72Q1123.035,767.1,1120.34,763.742Zm68.55,4.032c2.78,2.639,1.39.5,2.69,5.377-16.44,20.417-38.14,46.749-63.17,57.8,1.13,21.408,4.25,41.632-4.03,55.108l-8.07,2.688c12.54-15.079.92-45.8,10.75-63.172C1151.11,817.024,1174.59,787.075,1188.89,767.774Zm-61.83,4.032c1.35,1.792,2.69,3.585,4.04,5.377C1129.75,775.391,1128.41,773.6,1127.06,771.806Zm4.04,5.377c1.34,1.792,2.69,3.584,4.03,5.376C1133.79,780.767,1132.44,778.975,1131.1,777.183Zm4.03,5.376q1.335,2.016,2.69,4.032Q1136.47,784.575,1135.13,782.559Zm-20.16,26.882c-11.64,8.408-50.64,28.339-64.52,25.537q12.1-5.375,24.2-10.752c-15.17,3.648-54.73,13.769-63.18,25.537q8.745-2.687,17.48-5.376v1.344h-2.69l-14.79,6.721V853.8c24.39-3.436,93.34-29.5,106.19-44.355h-2.69Zm1.34,20.161H1119c-5.4,11.01-22.56,21.617-34.95,25.538q1.35-2.016,2.69-4.032l20.16-12.1-26.88,9.408Q1098.17,839.013,1116.31,829.6Zm-69.89,6.721h0Zm131.72,1.344h2.69l-8.07,8.064q1.35-2.016,2.69-4.032C1176.35,840.355,1177.24,839.011,1178.14,837.667Zm-103.49,13.441c0.89,0.448,1.79.9,2.68,1.344q-1.335,11.423-2.68,22.849c-24.17,15.938-62.5,37.811-96.779,40.323L979.215,921l-41.667-29.57c-22.429-7.187-67.046,2.981-81.989-12.1C927.658,900.511,1027.2,880.7,1074.65,851.108Zm22.84,8.064c3.73,1.553.71,0.416,0,4.032l-13.44,6.721q1.35-2.016,2.69-4.033Q1092.125,862.534,1097.49,859.172Zm-33.6,1.344c-31.99,17.6-74.246,19.035-110.213,33.6l8.065,9.409,17.473,10.753a551.991,551.991,0,0,0,91.395-40.323V860.516h-6.72Zm14.79,18.817c8.73-.332,18.14.24,22.85,4.033q-1.35,2.016-2.69,4.032c-19.8,7.913-33,23.34-55.11,29.57,0.9-1.344,1.79-2.689,2.69-4.033,12.43-4.74,31.11-15.544,38.98-25.537Zm34.94,9.409h2.69q-4.695,2.688-9.41,5.376Zm-9.4,5.376h0Zm-2.69,1.344h0Zm-2.69,1.344h0Zm-2.69,1.345h0Zm-2.69,1.344h0Z" transform="translate(-744 -421)"/>
</svg>
